<svg xmlns="http://www.w3.org/2000/svg" xmlns:xlink="http://www.w3.org/1999/xlink" width="500" zoomAndPan="magnify" viewBox="0 0 375 374.999991"
     height="500" preserveAspectRatio="xMidYMid meet" version="1.0">
    <defs>
        <g/>
        <clipPath id="22a036df35">
            <path d="M 347.296875 110.324219 L 375 110.324219 L 375 112.988281 L 347.296875 112.988281 Z M 347.296875 110.324219 "
                  clip-rule="nonzero"/>
        </clipPath>
        <clipPath id="c3e876e90b">
            <path d="M 376.21875 111.65625 L 347.296875 112.988281 L 347.296875 110.324219 Z M 376.21875 111.65625 " clip-rule="nonzero"/>
        </clipPath>
        <clipPath id="c9be5689a3">
            <path d="M 353.164062 108.296875 L 375 108.296875 L 375 110.980469 L 353.164062 110.980469 Z M 353.164062 108.296875 "
                  clip-rule="nonzero"/>
        </clipPath>
        <clipPath id="8c3f7d144b">
            <path d="M 376.214844 109.640625 L 353.164062 110.980469 L 353.164062 108.296875 Z M 376.214844 109.640625 " clip-rule="nonzero"/>
        </clipPath>
        <clipPath id="20689adb5c">
            <path d="M 347 112 L 375 112 L 375 115 L 347 115 Z M 347 112 " clip-rule="nonzero"/>
        </clipPath>
        <clipPath id="3f3929980f">
            <path d="M 374.605469 111.324219 L 374.671875 113.867188 L 347.066406 114.570312 L 347 112.027344 Z M 374.605469 111.324219 "
                  clip-rule="nonzero"/>
        </clipPath>
        <clipPath id="4c6eaaa8d3">
            <path d="M 374.640625 112.59375 L 347.066406 114.570312 L 347 112.027344 Z M 374.640625 112.59375 " clip-rule="nonzero"/>
        </clipPath>
        <clipPath id="36b7623cc9">
            <path d="M 345 113 L 374 113 L 374 117 L 345 117 Z M 345 113 " clip-rule="nonzero"/>
        </clipPath>
        <clipPath id="c774e14b6a">
            <path d="M 373.40625 112.945312 L 373.472656 115.488281 L 345.863281 116.191406 L 345.800781 113.648438 Z M 373.40625 112.945312 "
                  clip-rule="nonzero"/>
        </clipPath>
        <clipPath id="68e5b33373">
            <path d="M 373.4375 114.21875 L 345.863281 116.191406 L 345.800781 113.648438 Z M 373.4375 114.21875 " clip-rule="nonzero"/>
        </clipPath>
        <clipPath id="85afd969d8">
            <path d="M 344 115 L 374 115 L 374 119 L 344 119 Z M 344 115 " clip-rule="nonzero"/>
        </clipPath>
        <clipPath id="b549fd89b6">
            <path d="M 373.40625 114.996094 L 373.472656 117.675781 L 344.355469 118.417969 L 344.289062 115.738281 Z M 373.40625 114.996094 "
                  clip-rule="nonzero"/>
        </clipPath>
        <clipPath id="581682f43b">
            <path d="M 373.4375 116.335938 L 344.355469 118.417969 L 344.289062 115.738281 Z M 373.4375 116.335938 " clip-rule="nonzero"/>
        </clipPath>
        <clipPath id="505b9331a5">
            <path d="M 342 117 L 374 117 L 374 121 L 342 121 Z M 342 117 " clip-rule="nonzero"/>
        </clipPath>
        <clipPath id="8b89d240dd">
            <path d="M 373.09375 117.082031 L 373.167969 119.9375 L 342.113281 120.730469 L 342.039062 117.871094 Z M 373.09375 117.082031 "
                  clip-rule="nonzero"/>
        </clipPath>
        <clipPath id="b65c07bb5d">
            <path d="M 373.132812 118.507812 L 342.113281 120.730469 L 342.039062 117.871094 Z M 373.132812 118.507812 " clip-rule="nonzero"/>
        </clipPath>
        <clipPath id="d78e153a4e">
            <path d="M 340 119 L 373 119 L 373 123 L 340 123 Z M 340 119 " clip-rule="nonzero"/>
        </clipPath>
        <clipPath id="844cc0dadf">
            <path d="M 371.976562 118.984375 L 372.050781 121.835938 L 341.066406 122.625 L 340.992188 119.773438 Z M 371.976562 118.984375 "
                  clip-rule="nonzero"/>
        </clipPath>
        <clipPath id="9bbe1eb505">
            <path d="M 372.011719 120.410156 L 341.066406 122.625 L 340.992188 119.773438 Z M 372.011719 120.410156 " clip-rule="nonzero"/>
        </clipPath>
        <clipPath id="a4baab7a06">
            <path d="M 340 121 L 369 121 L 369 125 L 340 125 Z M 340 121 " clip-rule="nonzero"/>
        </clipPath>
        <clipPath id="d4c397a1a7">
            <path d="M 368.441406 120.808594 L 368.503906 123.347656 L 340.898438 124.050781 L 340.835938 121.511719 Z M 368.441406 120.808594 "
                  clip-rule="nonzero"/>
        </clipPath>
        <clipPath id="0c020a5afb">
            <path d="M 368.472656 122.078125 L 340.898438 124.050781 L 340.835938 121.511719 Z M 368.472656 122.078125 " clip-rule="nonzero"/>
        </clipPath>
        <clipPath id="358aebc207">
            <path d="M 340 123 L 369 123 L 369 126 L 340 126 Z M 340 123 " clip-rule="nonzero"/>
        </clipPath>
        <clipPath id="fb5bafbe4d">
            <path d="M 368.441406 122.429688 L 368.503906 124.972656 L 340.898438 125.675781 L 340.835938 123.132812 Z M 368.441406 122.429688 "
                  clip-rule="nonzero"/>
        </clipPath>
        <clipPath id="c77e37f200">
            <path d="M 368.472656 123.699219 L 340.898438 125.675781 L 340.835938 123.132812 Z M 368.472656 123.699219 " clip-rule="nonzero"/>
        </clipPath>
        <clipPath id="9c4a0b7151">
            <path d="M 340 124 L 369 124 L 369 128 L 340 128 Z M 340 124 " clip-rule="nonzero"/>
        </clipPath>
        <clipPath id="d1b3e6bdfd">
            <path d="M 368.441406 124.050781 L 368.503906 126.59375 L 340.898438 127.296875 L 340.835938 124.753906 Z M 368.441406 124.050781 "
                  clip-rule="nonzero"/>
        </clipPath>
        <clipPath id="65e949819c">
            <path d="M 368.472656 125.324219 L 340.898438 127.296875 L 340.835938 124.753906 Z M 368.472656 125.324219 " clip-rule="nonzero"/>
        </clipPath>
        <clipPath id="ebae5499c2">
            <path d="M 339 126 L 368 126 L 368 129 L 339 129 Z M 339 126 " clip-rule="nonzero"/>
        </clipPath>
        <clipPath id="a13de1362a">
            <path d="M 367.242188 125.675781 L 367.304688 128.214844 L 339.699219 128.917969 L 339.632812 126.378906 Z M 367.242188 125.675781 "
                  clip-rule="nonzero"/>
        </clipPath>
        <clipPath id="364174d450">
            <path d="M 367.273438 126.945312 L 339.699219 128.917969 L 339.632812 126.378906 Z M 367.273438 126.945312 " clip-rule="nonzero"/>
        </clipPath>
        <clipPath id="2d088568a6">
            <path d="M 338 128 L 368 128 L 368 132 L 338 132 Z M 338 128 " clip-rule="nonzero"/>
        </clipPath>
        <clipPath id="2c8beb5293">
            <path d="M 367.238281 127.722656 L 367.308594 130.402344 L 338.191406 131.144531 L 338.121094 128.464844 Z M 367.238281 127.722656 "
                  clip-rule="nonzero"/>
        </clipPath>
        <clipPath id="0257fa468a">
            <path d="M 367.273438 129.0625 L 338.191406 131.144531 L 338.121094 128.464844 Z M 367.273438 129.0625 " clip-rule="nonzero"/>
        </clipPath>
        <clipPath id="fcb1c14c1a">
            <path d="M 335 130 L 367 130 L 367 134 L 335 134 Z M 335 130 " clip-rule="nonzero"/>
        </clipPath>
        <clipPath id="ad3a5abe35">
            <path d="M 366.929688 129.808594 L 367.003906 132.667969 L 335.945312 133.457031 L 335.875 130.597656 Z M 366.929688 129.808594 "
                  clip-rule="nonzero"/>
        </clipPath>
        <clipPath id="5d96843611">
            <path d="M 366.964844 131.238281 L 335.945312 133.457031 L 335.875 130.597656 Z M 366.964844 131.238281 " clip-rule="nonzero"/>
        </clipPath>
        <clipPath id="04c861a962">
            <path d="M 335 132 L 366 132 L 366 136 L 335 136 Z M 335 132 " clip-rule="nonzero"/>
        </clipPath>
        <clipPath id="1679a89027">
            <path d="M 365.8125 131.804688 L 365.882812 134.5625 L 335.945312 135.324219 L 335.875 132.566406 Z M 365.8125 131.804688 "
                  clip-rule="nonzero"/>
        </clipPath>
        <clipPath id="00bdc24b97">
            <path d="M 365.847656 133.183594 L 335.945312 135.324219 L 335.875 132.566406 Z M 365.847656 133.183594 " clip-rule="nonzero"/>
        </clipPath>
        <clipPath id="6380aec3ee">
            <path d="M 337 134 L 366 134 L 366 137 L 337 137 Z M 337 134 " clip-rule="nonzero"/>
        </clipPath>
        <clipPath id="357fbeb0a6">
            <path d="M 365.816406 133.28125 L 365.882812 135.929688 L 337.082031 136.664062 L 337.011719 134.011719 Z M 365.816406 133.28125 "
                  clip-rule="nonzero"/>
        </clipPath>
        <clipPath id="3c56bb18ff">
            <path d="M 365.851562 134.605469 L 337.082031 136.664062 L 337.011719 134.011719 Z M 365.851562 134.605469 " clip-rule="nonzero"/>
        </clipPath>
        <clipPath id="5b42bdbd36">
            <path d="M 335 135 L 366 135 L 366 139 L 335 139 Z M 335 135 " clip-rule="nonzero"/>
        </clipPath>
        <clipPath id="3ee9c1cba2">
            <path d="M 365.8125 134.796875 L 365.882812 137.550781 L 335.945312 138.316406 L 335.875 135.558594 Z M 365.8125 134.796875 "
                  clip-rule="nonzero"/>
        </clipPath>
        <clipPath id="9777327fb3">
            <path d="M 365.847656 136.175781 L 335.945312 138.316406 L 335.875 135.558594 Z M 365.847656 136.175781 " clip-rule="nonzero"/>
        </clipPath>
        <clipPath id="1dc8566d79">
            <path d="M 335 137 L 366 137 L 366 140 L 335 140 Z M 335 137 " clip-rule="nonzero"/>
        </clipPath>
        <clipPath id="7040a3b8d1">
            <path d="M 365.816406 136.386719 L 365.886719 139.175781 L 335.574219 139.949219 L 335.5 137.15625 Z M 365.816406 136.386719 "
                  clip-rule="nonzero"/>
        </clipPath>
        <clipPath id="817dc0a500">
            <path d="M 365.851562 137.78125 L 335.574219 139.949219 L 335.5 137.15625 Z M 365.851562 137.78125 " clip-rule="nonzero"/>
        </clipPath>
        <clipPath id="edf2fa1497">
            <path d="M 335 138 L 365 138 L 365 142 L 335 142 Z M 335 138 " clip-rule="nonzero"/>
        </clipPath>
        <clipPath id="01da5ffc6a">
            <path d="M 364.617188 138.121094 L 364.683594 140.800781 L 335.566406 141.542969 L 335.5 138.863281 Z M 364.617188 138.121094 "
                  clip-rule="nonzero"/>
        </clipPath>
        <clipPath id="f89625958c">
            <path d="M 364.648438 139.460938 L 335.566406 141.542969 L 335.5 138.863281 Z M 364.648438 139.460938 " clip-rule="nonzero"/>
        </clipPath>
        <clipPath id="fcd7f27ffe">
            <path d="M 334 140 L 365 140 L 365 144 L 334 144 Z M 334 140 " clip-rule="nonzero"/>
        </clipPath>
        <clipPath id="ff3a3613d0">
            <path d="M 364.613281 140.203125 L 364.683594 142.984375 L 334.496094 143.75 L 334.425781 140.972656 Z M 364.613281 140.203125 "
                  clip-rule="nonzero"/>
        </clipPath>
        <clipPath id="6c45230bdd">
            <path d="M 364.648438 141.59375 L 334.496094 143.75 L 334.425781 140.972656 Z M 364.648438 141.59375 " clip-rule="nonzero"/>
        </clipPath>
        <clipPath id="72c3b17d3a">
            <path d="M 333 143 L 365 143 L 365 147 L 333 147 Z M 333 143 " clip-rule="nonzero"/>
        </clipPath>
        <clipPath id="d68e4dcd19">
            <path d="M 364.304688 142.394531 L 364.378906 145.253906 L 333.324219 146.042969 L 333.25 143.183594 Z M 364.304688 142.394531 "
                  clip-rule="nonzero"/>
        </clipPath>
        <clipPath id="e5639256e0">
            <path d="M 364.34375 143.824219 L 333.324219 146.042969 L 333.25 143.183594 Z M 364.34375 143.824219 " clip-rule="nonzero"/>
        </clipPath>
        <clipPath id="c3b8573b82">
            <path d="M 333 144 L 362 144 L 362 148 L 333 148 Z M 333 144 " clip-rule="nonzero"/>
        </clipPath>
        <clipPath id="dc84bb3d93">
            <path d="M 361.0625 144.226562 L 361.125 146.769531 L 333.519531 147.472656 L 333.457031 144.929688 Z M 361.0625 144.226562 "
                  clip-rule="nonzero"/>
        </clipPath>
        <clipPath id="981b8818b6">
            <path d="M 361.09375 145.496094 L 333.519531 147.472656 L 333.457031 144.929688 Z M 361.09375 145.496094 " clip-rule="nonzero"/>
        </clipPath>
        <clipPath id="d7777501b0">
            <path d="M 333 146 L 362 146 L 362 150 L 333 150 Z M 333 146 " clip-rule="nonzero"/>
        </clipPath>
        <clipPath id="d589a912cc">
            <path d="M 361.0625 145.847656 L 361.125 148.390625 L 333.519531 149.09375 L 333.457031 146.550781 Z M 361.0625 145.847656 "
                  clip-rule="nonzero"/>
        </clipPath>
        <clipPath id="ed6d22ad2f">
            <path d="M 361.09375 147.121094 L 333.519531 149.09375 L 333.457031 146.550781 Z M 361.09375 147.121094 " clip-rule="nonzero"/>
        </clipPath>
        <clipPath id="7a1827b88a">
            <path d="M 332 148 L 362 148 L 362 151 L 332 151 Z M 332 148 " clip-rule="nonzero"/>
        </clipPath>
        <clipPath id="6875b0d30f">
            <path d="M 361.0625 147.355469 L 361.128906 150.007812 L 332.324219 150.742188 L 332.257812 148.089844 Z M 361.0625 147.355469 "
                  clip-rule="nonzero"/>
        </clipPath>
        <clipPath id="17c8ae944e">
            <path d="M 361.09375 148.683594 L 332.324219 150.742188 L 332.257812 148.089844 Z M 361.09375 148.683594 " clip-rule="nonzero"/>
        </clipPath>
        <clipPath id="c194ccb4a0">
            <path d="M 331 149 L 360 149 L 360 153 L 331 153 Z M 331 149 " clip-rule="nonzero"/>
        </clipPath>
        <clipPath id="63709e1c63">
            <path d="M 359.863281 148.992188 L 359.929688 151.636719 L 331.191406 152.367188 L 331.125 149.722656 Z M 359.863281 148.992188 "
                  clip-rule="nonzero"/>
        </clipPath>
        <clipPath id="3c6d2b7e9d">
            <path d="M 359.894531 150.3125 L 331.191406 152.367188 L 331.125 149.722656 Z M 359.894531 150.3125 " clip-rule="nonzero"/>
        </clipPath>
        <clipPath id="9d2267e357">
            <path d="M 330 151 L 360 151 L 360 155 L 330 155 Z M 330 151 " clip-rule="nonzero"/>
        </clipPath>
        <clipPath id="4770330dbf">
            <path d="M 359.859375 151.140625 L 359.929688 153.820312 L 330.8125 154.5625 L 330.742188 151.882812 Z M 359.859375 151.140625 "
                  clip-rule="nonzero"/>
        </clipPath>
        <clipPath id="c9d5c1ffd2">
            <path d="M 359.894531 152.480469 L 330.8125 154.5625 L 330.742188 151.882812 Z M 359.894531 152.480469 " clip-rule="nonzero"/>
        </clipPath>
        <clipPath id="9660ce5276">
            <path d="M 330 154 L 360 154 L 360 157 L 330 157 Z M 330 154 " clip-rule="nonzero"/>
        </clipPath>
        <clipPath id="7bdb7bce57">
            <path d="M 359.558594 153.4375 L 359.625 156.089844 L 330.8125 156.824219 L 330.746094 154.171875 Z M 359.558594 153.4375 "
                  clip-rule="nonzero"/>
        </clipPath>
        <clipPath id="0068fa490c">
            <path d="M 359.589844 154.765625 L 330.8125 156.824219 L 330.746094 154.171875 Z M 359.589844 154.765625 " clip-rule="nonzero"/>
        </clipPath>
        <clipPath id="653bedb42f">
            <path d="M 328 154 L 359 154 L 359 158 L 328 158 Z M 328 154 " clip-rule="nonzero"/>
        </clipPath>
        <clipPath id="2b1998c51e">
            <path d="M 358.8125 153.929688 L 358.882812 156.6875 L 328.921875 157.449219 L 328.851562 154.691406 Z M 358.8125 153.929688 "
                  clip-rule="nonzero"/>
        </clipPath>
        <clipPath id="e7ca4338fb">
            <path d="M 358.847656 155.308594 L 328.921875 157.449219 L 328.851562 154.691406 Z M 358.847656 155.308594 " clip-rule="nonzero"/>
        </clipPath>
        <clipPath id="3f196fc4bb">
            <path d="M 328 156 L 357 156 L 357 159 L 328 159 Z M 328 156 " clip-rule="nonzero"/>
        </clipPath>
        <clipPath id="c2900675c1">
            <path d="M 356.457031 155.753906 L 356.519531 158.296875 L 328.914062 159 L 328.847656 156.457031 Z M 356.457031 155.753906 "
                  clip-rule="nonzero"/>
        </clipPath>
        <clipPath id="978c310950">
            <path d="M 356.488281 157.027344 L 328.914062 159 L 328.847656 156.457031 Z M 356.488281 157.027344 " clip-rule="nonzero"/>
        </clipPath>
        <clipPath id="d3c3569cda">
            <path d="M 328 158 L 357 158 L 357 161 L 328 161 Z M 328 158 " clip-rule="nonzero"/>
        </clipPath>
        <clipPath id="28e99730d5">
            <path d="M 356.457031 157.378906 L 356.519531 159.917969 L 328.914062 160.621094 L 328.847656 158.082031 Z M 356.457031 157.378906 "
                  clip-rule="nonzero"/>
        </clipPath>
        <clipPath id="6c39c3bda4">
            <path d="M 356.488281 158.648438 L 328.914062 160.621094 L 328.847656 158.082031 Z M 356.488281 158.648438 " clip-rule="nonzero"/>
        </clipPath>
        <clipPath id="55eb57a19e">
            <path d="M 328 159 L 357 159 L 357 163 L 328 163 Z M 328 159 " clip-rule="nonzero"/>
        </clipPath>
        <clipPath id="3a9e55402e">
            <path d="M 356.457031 159 L 356.519531 161.539062 L 328.914062 162.242188 L 328.847656 159.703125 Z M 356.457031 159 "
                  clip-rule="nonzero"/>
        </clipPath>
        <clipPath id="a9b0d27388">
            <path d="M 356.488281 160.269531 L 328.914062 162.242188 L 328.847656 159.703125 Z M 356.488281 160.269531 " clip-rule="nonzero"/>
        </clipPath>
        <clipPath id="6fe33bf0b5">
            <path d="M 327 161 L 356 161 L 356 164 L 327 164 Z M 327 161 " clip-rule="nonzero"/>
        </clipPath>
        <clipPath id="c3e6de0ac7">
            <path d="M 355.253906 160.621094 L 355.320312 163.164062 L 327.714844 163.867188 L 327.648438 161.324219 Z M 355.253906 160.621094 "
                  clip-rule="nonzero"/>
        </clipPath>
        <clipPath id="a1f4b570cd">
            <path d="M 355.289062 161.890625 L 327.714844 163.867188 L 327.648438 161.324219 Z M 355.289062 161.890625 " clip-rule="nonzero"/>
        </clipPath>
        <clipPath id="d3bf85866c">
            <path d="M 326 163 L 356 163 L 356 167 L 326 167 Z M 326 163 " clip-rule="nonzero"/>
        </clipPath>
        <clipPath id="2472d44e8f">
            <path d="M 355.253906 162.667969 L 355.320312 165.351562 L 326.207031 166.089844 L 326.136719 163.410156 Z M 355.253906 162.667969 "
                  clip-rule="nonzero"/>
        </clipPath>
        <clipPath id="bf9363410b">
            <path d="M 355.289062 164.007812 L 326.207031 166.089844 L 326.136719 163.410156 Z M 355.289062 164.007812 " clip-rule="nonzero"/>
        </clipPath>
        <clipPath id="48aeb2a129">
            <path d="M 326 165 L 355 165 L 355 169 L 326 169 Z M 326 165 " clip-rule="nonzero"/>
        </clipPath>
        <clipPath id="510f42bf1c">
            <path d="M 354.949219 164.96875 L 355.019531 167.617188 L 326.207031 168.351562 L 326.140625 165.699219 Z M 354.949219 164.96875 "
                  clip-rule="nonzero"/>
        </clipPath>
        <clipPath id="4f69acca04">
            <path d="M 354.984375 166.292969 L 326.207031 168.351562 L 326.140625 165.699219 Z M 354.984375 166.292969 " clip-rule="nonzero"/>
        </clipPath>
        <clipPath id="cecc0ef839">
            <path d="M 327 166 L 355 166 L 355 170 L 327 170 Z M 327 166 " clip-rule="nonzero"/>
        </clipPath>
        <clipPath id="cb8ec704f4">
            <path d="M 354.605469 166.089844 L 354.671875 168.632812 L 327.0625 169.335938 L 327 166.792969 Z M 354.605469 166.089844 "
                  clip-rule="nonzero"/>
        </clipPath>
        <clipPath id="3b48633cf1">
            <path d="M 354.636719 167.363281 L 327.0625 169.335938 L 327 166.792969 Z M 354.636719 167.363281 " clip-rule="nonzero"/>
        </clipPath>
        <clipPath id="5bcabc9abc">
            <path d="M 324 168 L 355 168 L 355 172 L 324 172 Z M 324 168 " clip-rule="nonzero"/>
        </clipPath>
        <clipPath id="fdcab6d7f0">
            <path d="M 354.601562 167.460938 L 354.671875 170.25 L 324.359375 171.023438 L 324.289062 168.230469 Z M 354.601562 167.460938 "
                  clip-rule="nonzero"/>
        </clipPath>
        <clipPath id="8076451b4a">
            <path d="M 354.636719 168.855469 L 324.359375 171.023438 L 324.289062 168.230469 Z M 354.636719 168.855469 " clip-rule="nonzero"/>
        </clipPath>
        <clipPath id="68540bd712">
            <path d="M 324 169 L 355 169 L 355 173 L 324 173 Z M 324 169 " clip-rule="nonzero"/>
        </clipPath>
        <clipPath id="3176a903b8">
            <path d="M 354.597656 169.078125 L 354.667969 171.875 L 324.292969 172.648438 L 324.222656 169.851562 Z M 354.597656 169.078125 "
                  clip-rule="nonzero"/>
        </clipPath>
        <clipPath id="99ec1abc92">
            <path d="M 354.632812 170.476562 L 324.292969 172.648438 L 324.222656 169.851562 Z M 354.632812 170.476562 " clip-rule="nonzero"/>
        </clipPath>
        <clipPath id="d2375c64da">
            <path d="M 323 171 L 354 171 L 354 175 L 323 175 Z M 323 171 " clip-rule="nonzero"/>
        </clipPath>
        <clipPath id="8276a02226">
            <path d="M 353.40625 170.71875 L 353.476562 173.496094 L 323.308594 174.265625 L 323.238281 171.488281 Z M 353.40625 170.71875 "
                  clip-rule="nonzero"/>
        </clipPath>
        <clipPath id="5bf2506db5">
            <path d="M 353.441406 172.105469 L 323.308594 174.265625 L 323.238281 171.488281 Z M 353.441406 172.105469 " clip-rule="nonzero"/>
        </clipPath>
        <clipPath id="f8276bf14c">
            <path d="M 323 173 L 354 173 L 354 177 L 323 177 Z M 323 173 " clip-rule="nonzero"/>
        </clipPath>
        <clipPath id="cc9f25b70d">
            <path d="M 353.40625 172.90625 L 353.476562 175.683594 L 323.308594 176.453125 L 323.238281 173.675781 Z M 353.40625 172.90625 "
                  clip-rule="nonzero"/>
        </clipPath>
        <clipPath id="50ad9368be">
            <path d="M 353.441406 174.292969 L 323.308594 176.453125 L 323.238281 173.675781 Z M 353.441406 174.292969 " clip-rule="nonzero"/>
        </clipPath>
        <clipPath id="918b73155e">
            <path d="M 322 175 L 354 175 L 354 179 L 322 179 Z M 322 175 " clip-rule="nonzero"/>
        </clipPath>
        <clipPath id="539a3e3442">
            <path d="M 353.09375 175.089844 L 353.167969 177.949219 L 322.109375 178.742188 L 322.039062 175.882812 Z M 353.09375 175.089844 "
                  clip-rule="nonzero"/>
        </clipPath>
        <clipPath id="d8ab42b548">
            <path d="M 353.128906 176.519531 L 322.109375 178.742188 L 322.039062 175.882812 Z M 353.128906 176.519531 " clip-rule="nonzero"/>
        </clipPath>
        <clipPath id="71042f0232">
            <path d="M 321 177 L 350 177 L 350 180 L 321 180 Z M 321 177 " clip-rule="nonzero"/>
        </clipPath>
        <clipPath id="bebbba0213">
            <path d="M 349.488281 176.453125 L 349.550781 178.996094 L 321.945312 179.699219 L 321.882812 177.15625 Z M 349.488281 176.453125 "
                  clip-rule="nonzero"/>
        </clipPath>
        <clipPath id="df435a0119">
            <path d="M 349.519531 177.726562 L 321.945312 179.699219 L 321.882812 177.15625 Z M 349.519531 177.726562 " clip-rule="nonzero"/>
        </clipPath>
        <clipPath id="46066618ff">
            <path d="M 321 178 L 350 178 L 350 182 L 321 182 Z M 321 178 " clip-rule="nonzero"/>
        </clipPath>
        <clipPath id="c5ba7c6784">
            <path d="M 349.488281 178.078125 L 349.550781 180.617188 L 321.945312 181.320312 L 321.882812 178.78125 Z M 349.488281 178.078125 "
                  clip-rule="nonzero"/>
        </clipPath>
        <clipPath id="52ca370995">
            <path d="M 349.519531 179.347656 L 321.945312 181.320312 L 321.882812 178.78125 Z M 349.519531 179.347656 " clip-rule="nonzero"/>
        </clipPath>
        <clipPath id="15940ee80c">
            <path d="M 320 180 L 350 180 L 350 183 L 320 183 Z M 320 180 " clip-rule="nonzero"/>
        </clipPath>
        <clipPath id="0966c6486b">
            <path d="M 349.488281 179.585938 L 349.554688 182.242188 L 320.699219 182.976562 L 320.628906 180.320312 Z M 349.488281 179.585938 "
                  clip-rule="nonzero"/>
        </clipPath>
        <clipPath id="6592d6baef">
            <path d="M 349.519531 180.914062 L 320.699219 182.976562 L 320.628906 180.320312 Z M 349.519531 180.914062 " clip-rule="nonzero"/>
        </clipPath>
        <clipPath id="4df6f35a89">
            <path d="M 319 181 L 349 181 L 349 185 L 319 185 Z M 319 181 " clip-rule="nonzero"/>
        </clipPath>
        <clipPath id="61d80f9589">
            <path d="M 348.289062 181.21875 L 348.355469 183.863281 L 319.617188 184.597656 L 319.550781 181.949219 Z M 348.289062 181.21875 "
                  clip-rule="nonzero"/>
        </clipPath>
        <clipPath id="dffedb3789">
            <path d="M 348.320312 182.542969 L 319.617188 184.597656 L 319.550781 181.949219 Z M 348.320312 182.542969 " clip-rule="nonzero"/>
        </clipPath>
        <clipPath id="504d9907f8">
            <path d="M 319 184 L 349 184 L 349 187 L 319 187 Z M 319 184 " clip-rule="nonzero"/>
        </clipPath>
        <clipPath id="4f5cbb326a">
            <path d="M 348.285156 183.371094 L 348.355469 186.050781 L 319.238281 186.792969 L 319.167969 184.109375 Z M 348.285156 183.371094 "
                  clip-rule="nonzero"/>
        </clipPath>
        <clipPath id="fb2fd4fa66">
            <path d="M 348.320312 184.710938 L 319.238281 186.792969 L 319.167969 184.109375 Z M 348.320312 184.710938 " clip-rule="nonzero"/>
        </clipPath>
        <clipPath id="eae1276072">
            <path d="M 319 186 L 349 186 L 349 190 L 319 190 Z M 319 186 " clip-rule="nonzero"/>
        </clipPath>
        <clipPath id="12475a31eb">
            <path d="M 347.984375 185.667969 L 348.050781 188.320312 L 319.238281 189.054688 L 319.171875 186.402344 Z M 347.984375 185.667969 "
                  clip-rule="nonzero"/>
        </clipPath>
        <clipPath id="bddc425289">
            <path d="M 348.015625 186.992188 L 319.238281 189.054688 L 319.171875 186.402344 Z M 348.015625 186.992188 " clip-rule="nonzero"/>
        </clipPath>
        <clipPath id="c55bb83e3b">
            <path d="M 317 188 L 347 188 L 347 191 L 317 191 Z M 317 188 " clip-rule="nonzero"/>
        </clipPath>
        <clipPath id="e85d4ae52f">
            <path d="M 346.859375 187.554688 L 346.929688 190.214844 L 318.058594 190.949219 L 317.988281 188.289062 Z M 346.859375 187.554688 "
                  clip-rule="nonzero"/>
        </clipPath>
        <clipPath id="42b10a8fba">
            <path d="M 346.894531 188.882812 L 318.058594 190.949219 L 317.988281 188.289062 Z M 346.894531 188.882812 " clip-rule="nonzero"/>
        </clipPath>
        <clipPath id="1954424594">
            <path d="M 317 190 L 346 190 L 346 194 L 317 194 Z M 317 190 " clip-rule="nonzero"/>
        </clipPath>
        <clipPath id="cf8b33d9c4">
            <path d="M 345.117188 189.804688 L 345.179688 192.34375 L 317.574219 193.050781 L 317.507812 190.507812 Z M 345.117188 189.804688 "
                  clip-rule="nonzero"/>
        </clipPath>
        <clipPath id="5d95aec945">
            <path d="M 345.148438 191.074219 L 317.574219 193.050781 L 317.507812 190.507812 Z M 345.148438 191.074219 " clip-rule="nonzero"/>
        </clipPath>
        <clipPath id="b9a506887e">
            <path d="M 316 192 L 346 192 L 346 195 L 316 195 Z M 316 192 " clip-rule="nonzero"/>
        </clipPath>
        <clipPath id="a6d55f7c44">
            <path d="M 345.117188 191.3125 L 345.183594 193.964844 L 316.378906 194.695312 L 316.3125 192.046875 Z M 345.117188 191.3125 "
                  clip-rule="nonzero"/>
        </clipPath>
        <clipPath id="ab395f035c">
            <path d="M 345.148438 192.636719 L 316.378906 194.695312 L 316.3125 192.046875 Z M 345.148438 192.636719 " clip-rule="nonzero"/>
        </clipPath>
        <clipPath id="c5e51afe25">
            <path d="M 316 193 L 346 193 L 346 197 L 316 197 Z M 316 193 " clip-rule="nonzero"/>
        </clipPath>
        <clipPath id="2b44eb227a">
            <path d="M 345.117188 192.933594 L 345.183594 195.585938 L 316.378906 196.320312 L 316.3125 193.667969 Z M 345.117188 192.933594 "
                  clip-rule="nonzero"/>
        </clipPath>
        <clipPath id="2f66ac2ce8">
            <path d="M 345.148438 194.257812 L 316.378906 196.320312 L 316.3125 193.667969 Z M 345.148438 194.257812 " clip-rule="nonzero"/>
        </clipPath>
        <clipPath id="4b674d3d15">
            <path d="M 315 195 L 344 195 L 344 198 L 315 198 Z M 315 195 " clip-rule="nonzero"/>
        </clipPath>
        <clipPath id="6157b9d9ec">
            <path d="M 343.917969 194.570312 L 343.984375 197.214844 L 315.246094 197.945312 L 315.179688 195.300781 Z M 343.917969 194.570312 "
                  clip-rule="nonzero"/>
        </clipPath>
        <clipPath id="f37e7dda10">
            <path d="M 343.949219 195.890625 L 315.246094 197.945312 L 315.179688 195.300781 Z M 343.949219 195.890625 " clip-rule="nonzero"/>
        </clipPath>
        <clipPath id="fe33384d97">
            <path d="M 314 197 L 344 197 L 344 201 L 314 201 Z M 314 197 " clip-rule="nonzero"/>
        </clipPath>
        <clipPath id="66bbcc6d9c">
            <path d="M 343.914062 196.71875 L 343.984375 199.398438 L 314.867188 200.140625 L 314.796875 197.460938 Z M 343.914062 196.71875 "
                  clip-rule="nonzero"/>
        </clipPath>
        <clipPath id="e065bbd5c7">
            <path d="M 343.949219 198.058594 L 314.867188 200.140625 L 314.796875 197.460938 Z M 343.949219 198.058594 " clip-rule="nonzero"/>
        </clipPath>
        <clipPath id="d9d879a32e">
            <path d="M 313 199 L 344 199 L 344 203 L 313 203 Z M 313 199 " clip-rule="nonzero"/>
        </clipPath>
        <clipPath id="0397f91182">
            <path d="M 343.605469 198.921875 L 343.675781 201.664062 L 313.851562 202.425781 L 313.78125 199.679688 Z M 343.605469 198.921875 "
                  clip-rule="nonzero"/>
        </clipPath>
        <clipPath id="4745f0cf33">
            <path d="M 343.640625 200.292969 L 313.851562 202.425781 L 313.78125 199.679688 Z M 343.640625 200.292969 " clip-rule="nonzero"/>
        </clipPath>
        <clipPath id="907886668e">
            <path d="M 313 201 L 343 201 L 343 205 L 313 205 Z M 313 201 " clip-rule="nonzero"/>
        </clipPath>
        <clipPath id="3c82d082ed">
            <path d="M 342.488281 200.90625 L 342.558594 203.5625 L 313.683594 204.296875 L 313.617188 201.640625 Z M 342.488281 200.90625 "
                  clip-rule="nonzero"/>
        </clipPath>
        <clipPath id="1f429047b2">
            <path d="M 342.523438 202.234375 L 313.683594 204.296875 L 313.617188 201.640625 Z M 342.523438 202.234375 " clip-rule="nonzero"/>
        </clipPath>
        <clipPath id="c73b9e0755">
            <path d="M 311 203 L 340 203 L 340 206 L 311 206 Z M 311 203 " clip-rule="nonzero"/>
        </clipPath>
        <clipPath id="c778998f98">
            <path d="M 339.414062 202.601562 L 339.476562 205.144531 L 311.871094 205.847656 L 311.804688 203.304688 Z M 339.414062 202.601562 "
                  clip-rule="nonzero"/>
        </clipPath>
        <clipPath id="b1754d4d20">
            <path d="M 339.445312 203.871094 L 311.871094 205.847656 L 311.804688 203.304688 Z M 339.445312 203.871094 " clip-rule="nonzero"/>
        </clipPath>
        <clipPath id="15033256bd">
            <path d="M 311 204 L 340 204 L 340 208 L 311 208 Z M 311 204 " clip-rule="nonzero"/>
        </clipPath>
        <clipPath id="5d7d38a4ba">
            <path d="M 339.414062 204.222656 L 339.476562 206.765625 L 311.871094 207.46875 L 311.804688 204.925781 Z M 339.414062 204.222656 "
                  clip-rule="nonzero"/>
        </clipPath>
        <clipPath id="3d0686f6ef">
            <path d="M 339.445312 205.496094 L 311.871094 207.46875 L 311.804688 204.925781 Z M 339.445312 205.496094 " clip-rule="nonzero"/>
        </clipPath>
        <clipPath id="2ca1e173cd">
            <path d="M 312 206 L 340 206 L 340 210 L 312 210 Z M 312 206 " clip-rule="nonzero"/>
        </clipPath>
        <clipPath id="346d0f1503">
            <path d="M 339.90625 206.058594 L 339.972656 208.601562 L 312.363281 209.304688 L 312.300781 206.761719 Z M 339.90625 206.058594 "
                  clip-rule="nonzero"/>
        </clipPath>
        <clipPath id="cacc090879">
            <path d="M 339.9375 207.332031 L 312.363281 209.304688 L 312.300781 206.761719 Z M 339.9375 207.332031 " clip-rule="nonzero"/>
        </clipPath>
        <clipPath id="4f3fc6710b">
            <path d="M 310 208 L 339 208 L 339 211 L 310 211 Z M 310 208 " clip-rule="nonzero"/>
        </clipPath>
        <clipPath id="98734bb8a2">
            <path d="M 338.214844 207.46875 L 338.277344 210.011719 L 310.671875 210.714844 L 310.605469 208.171875 Z M 338.214844 207.46875 "
                  clip-rule="nonzero"/>
        </clipPath>
        <clipPath id="d95cbf3b73">
            <path d="M 338.246094 208.738281 L 310.671875 210.714844 L 310.605469 208.171875 Z M 338.246094 208.738281 " clip-rule="nonzero"/>
        </clipPath>
        <clipPath id="ed483d1854">
            <path d="M 310 210 L 339 210 L 339 213 L 310 213 Z M 310 210 " clip-rule="nonzero"/>
        </clipPath>
        <clipPath id="e646bec3c9">
            <path d="M 338.214844 209.65625 L 338.277344 212.195312 L 310.671875 212.898438 L 310.605469 210.359375 Z M 338.214844 209.65625 "
                  clip-rule="nonzero"/>
        </clipPath>
        <clipPath id="c9d0e499c0">
            <path d="M 338.246094 210.925781 L 310.671875 212.898438 L 310.605469 210.359375 Z M 338.246094 210.925781 " clip-rule="nonzero"/>
        </clipPath>
        <clipPath id="a9c1f8b34e">
            <path d="M 309 212 L 338 212 L 338 216 L 309 216 Z M 309 212 " clip-rule="nonzero"/>
        </clipPath>
        <clipPath id="7b0e2fd8eb">
            <path d="M 337.90625 211.8125 L 337.976562 214.464844 L 309.164062 215.199219 L 309.097656 212.546875 Z M 337.90625 211.8125 "
                  clip-rule="nonzero"/>
        </clipPath>
        <clipPath id="c9c95f55e3">
            <path d="M 337.941406 213.140625 L 309.164062 215.199219 L 309.097656 212.546875 Z M 337.941406 213.140625 " clip-rule="nonzero"/>
        </clipPath>
        <clipPath id="5a50d64443">
            <path d="M 309 214 L 337 214 L 337 218 L 309 218 Z M 309 214 " clip-rule="nonzero"/>
        </clipPath>
        <clipPath id="57c6eec42d">
            <path d="M 336.792969 213.8125 L 336.859375 216.359375 L 309.160156 217.066406 L 309.097656 214.515625 Z M 336.792969 213.8125 "
                  clip-rule="nonzero"/>
        </clipPath>
        <clipPath id="ccafcd1afc">
            <path d="M 336.824219 215.085938 L 309.160156 217.066406 L 309.097656 214.515625 Z M 336.824219 215.085938 " clip-rule="nonzero"/>
        </clipPath>
        <clipPath id="337eb1ab97">
            <path d="M 308 216 L 336 216 L 336 220 L 308 220 Z M 308 216 " clip-rule="nonzero"/>
        </clipPath>
        <clipPath id="87663b40c3">
            <path d="M 335.804688 215.953125 L 335.871094 218.492188 L 308.265625 219.195312 L 308.199219 216.65625 Z M 335.804688 215.953125 "
                  clip-rule="nonzero"/>
        </clipPath>
        <clipPath id="cb5ae6efb0">
            <path d="M 335.839844 217.222656 L 308.265625 219.195312 L 308.199219 216.65625 Z M 335.839844 217.222656 " clip-rule="nonzero"/>
        </clipPath>
        <clipPath id="8cf6cf0d7f">
            <path d="M 308 218 L 336 218 L 336 221 L 308 221 Z M 308 218 " clip-rule="nonzero"/>
        </clipPath>
        <clipPath id="abb2bcb4bb">
            <path d="M 335.804688 217.574219 L 335.871094 220.117188 L 308.265625 220.820312 L 308.199219 218.277344 Z M 335.804688 217.574219 "
                  clip-rule="nonzero"/>
        </clipPath>
        <clipPath id="b179699c9a">
            <path d="M 335.839844 218.84375 L 308.265625 220.820312 L 308.199219 218.277344 Z M 335.839844 218.84375 " clip-rule="nonzero"/>
        </clipPath>
        <clipPath id="a7199ffca6">
            <path d="M 307 219 L 336 219 L 336 223 L 307 223 Z M 307 219 " clip-rule="nonzero"/>
        </clipPath>
        <clipPath id="18068bb7e2">
            <path d="M 335.804688 219.082031 L 335.875 221.734375 L 307.070312 222.464844 L 307.003906 219.816406 Z M 335.804688 219.082031 "
                  clip-rule="nonzero"/>
        </clipPath>
        <clipPath id="af32e36770">
            <path d="M 335.839844 220.40625 L 307.070312 222.464844 L 307.003906 219.816406 Z M 335.839844 220.40625 " clip-rule="nonzero"/>
        </clipPath>
        <clipPath id="32f8786669">
            <path d="M 307 221 L 335 221 L 335 225 L 307 225 Z M 307 221 " clip-rule="nonzero"/>
        </clipPath>
        <clipPath id="95e6bb49f9">
            <path d="M 334.605469 220.820312 L 334.671875 223.359375 L 307.066406 224.0625 L 307 221.523438 Z M 334.605469 220.820312 "
                  clip-rule="nonzero"/>
        </clipPath>
        <clipPath id="b7acf198ba">
            <path d="M 334.640625 222.089844 L 307.066406 224.0625 L 307 221.523438 Z M 334.640625 222.089844 " clip-rule="nonzero"/>
        </clipPath>
        <clipPath id="330c543693">
            <path d="M 305 223 L 335 223 L 335 227 L 305 227 Z M 305 223 " clip-rule="nonzero"/>
        </clipPath>
        <clipPath id="1bfcaa0391">
            <path d="M 334.605469 222.867188 L 334.671875 225.546875 L 305.554688 226.289062 L 305.488281 223.609375 Z M 334.605469 222.867188 "
                  clip-rule="nonzero"/>
        </clipPath>
        <clipPath id="09f13f0ef0">
            <path d="M 334.636719 224.207031 L 305.554688 226.289062 L 305.488281 223.609375 Z M 334.636719 224.207031 " clip-rule="nonzero"/>
        </clipPath>
        <clipPath id="8af2c6e3c0">
            <path d="M 303 225 L 335 225 L 335 229 L 303 229 Z M 303 225 " clip-rule="nonzero"/>
        </clipPath>
        <clipPath id="97fc15e9cb">
            <path d="M 334.292969 224.953125 L 334.367188 227.808594 L 303.3125 228.601562 L 303.238281 225.742188 Z M 334.292969 224.953125 "
                  clip-rule="nonzero"/>
        </clipPath>
        <clipPath id="3ffaf975bb">
            <path d="M 334.332031 226.382812 L 303.3125 228.601562 L 303.238281 225.742188 Z M 334.332031 226.382812 " clip-rule="nonzero"/>
        </clipPath>
        <clipPath id="71c6997f74">
            <path d="M 304 227 L 333 227 L 333 231 L 304 231 Z M 304 227 " clip-rule="nonzero"/>
        </clipPath>
        <clipPath id="422dd0a498">
            <path d="M 332.652344 226.78125 L 332.71875 229.335938 L 304.964844 230.042969 L 304.898438 227.488281 Z M 332.652344 226.78125 "
                  clip-rule="nonzero"/>
        </clipPath>
        <clipPath id="41569c6fce">
            <path d="M 332.683594 228.058594 L 304.964844 230.042969 L 304.898438 227.488281 Z M 332.683594 228.058594 " clip-rule="nonzero"/>
        </clipPath>
        <clipPath id="ca8281fc0d">
            <path d="M 303.300781 229.359375 L 332.257812 229.359375 L 332.257812 232.023438 L 303.300781 232.023438 Z M 303.300781 229.359375 "
                  clip-rule="nonzero"/>
        </clipPath>
        <clipPath id="87330c6af8">
            <path d="M 332.257812 230.691406 L 303.300781 232.023438 L 303.300781 229.359375 Z M 332.257812 230.691406 " clip-rule="nonzero"/>
        </clipPath>
        <clipPath id="bbdd99f12f">
            <path d="M 303 228 L 332 228 L 332 232 L 303 232 Z M 303 228 " clip-rule="nonzero"/>
        </clipPath>
        <clipPath id="ceade60524">
            <path d="M 331.625 227.785156 L 331.691406 230.339844 L 303.9375 231.046875 L 303.875 228.492188 Z M 331.625 227.785156 "
                  clip-rule="nonzero"/>
        </clipPath>
        <clipPath id="ed07e553d5">
            <path d="M 331.660156 229.0625 L 303.9375 231.046875 L 303.875 228.492188 Z M 331.660156 229.0625 " clip-rule="nonzero"/>
        </clipPath>
    </defs>
    <g fill="#000000" fill-opacity="1">
        <g transform="translate(-2.268235, 228.449157)">
            <g>
                <path d="M 3.601562 -1.441406 L 3.601562 0 L 44.519531 0 L 44.519531 -1.320312 L 39.238281 -1.320312 C 29.640625 -1.320312 27.71875 -8.160156 27.71875 -17.039062 C 27.71875 -34.320312 33.71875 -75.839844 39.71875 -111.960938 C 40.078125 -110.878906 40.320312 -109.800781 40.679688 -108.71875 C 55.320312 -64.921875 60.121094 -38.398438 71.28125 2.398438 L 72.71875 2.398438 C 83.160156 -34.921875 93.238281 -74.039062 103.441406 -112.199219 C 109.199219 -76.679688 118.800781 -24.601562 118.800781 -13.320312 C 118.800781 -6.238281 113.640625 -1.320312 104.039062 -1.320312 L 98.761719 -1.320312 L 98.761719 0 L 145.558594 0 L 145.558594 -1.441406 L 139.921875 -1.441406 C 127.441406 -1.441406 123.839844 -30.359375 119.28125 -60 C 115.921875 -82.199219 110.519531 -109.558594 110.519531 -115.679688 C 110.519531 -117.71875 111.480469 -118.558594 113.761719 -118.558594 L 124.921875 -118.558594 L 124.921875 -120 L 103.921875 -120 C 103.800781 -119.519531 103.679688 -119.039062 103.558594 -118.558594 C 92.640625 -74.640625 86.398438 -54.480469 75.839844 -13.921875 C 64.441406 -55.199219 59.039062 -74.519531 46.921875 -118.558594 C 46.800781 -119.039062 46.679688 -119.519531 46.558594 -120 L 24.238281 -120 L 24.238281 -118.558594 L 33.480469 -118.558594 C 36 -118.558594 38.519531 -117.359375 38.519531 -115.199219 C 38.519531 -107.28125 33.238281 -81.839844 29.878906 -60 C 25.320312 -30.359375 21.71875 -1.441406 9.238281 -1.441406 Z M 3.601562 -1.441406 "/>
            </g>
        </g>
    </g>
    <g fill="#000000" fill-opacity="1">
        <g transform="translate(146.891838, 228.449157)">
            <g>
                <path d="M 6.71875 -118.558594 C 9 -118.558594 12.839844 -117.480469 12.839844 -110.878906 L 12.839844 -30 C 12.839844 -12 24.480469 2.398438 48.121094 2.398438 C 71.519531 2.398438 83.160156 -12 83.160156 -30 L 83.160156 -110.878906 C 83.160156 -117.480469 87 -118.558594 89.28125 -118.558594 L 94.800781 -118.558594 L 94.800781 -120 L 62.761719 -120 L 62.761719 -118.558594 L 68.28125 -118.558594 C 70.558594 -118.558594 74.398438 -117.480469 74.398438 -110.878906 L 74.398438 -25.921875 C 74.398438 -10.921875 67.921875 0.960938 48 0.960938 C 28.078125 0.960938 21.601562 -10.921875 21.601562 -25.921875 L 21.601562 -110.878906 C 21.601562 -117.480469 25.441406 -118.558594 27.71875 -118.558594 L 33.238281 -118.558594 L 33.238281 -120 L 1.199219 -120 L 1.199219 -118.558594 Z M 6.71875 -118.558594 "/>
            </g>
        </g>
    </g>
    <g fill="#cb0006" fill-opacity="1">
        <g transform="translate(242.899717, 228.449157)">
            <g>
                <path d="M 3.601562 -118.558594 L 8.519531 -118.558594 C 15.71875 -118.558594 19.441406 -111.71875 21.839844 -107.039062 C 24 -102.839844 54.71875 -13.320312 60.238281 2.398438 L 61.679688 2.398438 C 67.199219 -13.320312 97.921875 -102.839844 100.078125 -107.039062 C 102.480469 -111.71875 106.199219 -118.558594 113.398438 -118.558594 L 118.320312 -118.558594 L 118.320312 -120 L 78.839844 -120 L 78.839844 -118.558594 L 85.078125 -118.558594 C 89.640625 -118.558594 94.558594 -116.160156 94.558594 -109.441406 C 94.558594 -99.121094 85.800781 -72.839844 77.519531 -49.199219 C 72.359375 -34.320312 67.320312 -20.519531 64.679688 -12.71875 L 65.160156 -11.28125 C 65.160156 -11.28125 29.640625 -109.558594 29.640625 -115.441406 C 29.640625 -118.558594 32.039062 -118.558594 34.199219 -118.558594 L 40.441406 -118.558594 L 40.441406 -120 L 3.601562 -120 Z M 3.601562 -118.558594 "/>
            </g>
        </g>
    </g>
    <g clip-path="url(#22a036df35)">
        <g clip-path="url(#c3e876e90b)">
            <path fill="#cb0006"
                  d="M 376.21875 110.324219 L 376.21875 112.988281 L 347.296875 112.988281 L 347.296875 110.324219 Z M 376.21875 110.324219 "
                  fill-opacity="1" fill-rule="nonzero"/>
        </g>
    </g>
    <g clip-path="url(#c9be5689a3)">
        <g clip-path="url(#8c3f7d144b)">
            <path fill="#cb0006"
                  d="M 376.214844 108.296875 L 376.214844 110.980469 L 353.164062 110.980469 L 353.164062 108.296875 Z M 376.214844 108.296875 "
                  fill-opacity="1" fill-rule="nonzero"/>
        </g>
    </g>
    <g clip-path="url(#20689adb5c)">
        <g clip-path="url(#3f3929980f)">
            <g clip-path="url(#4c6eaaa8d3)">
                <path fill="#cb0006"
                      d="M 374.605469 111.324219 L 374.671875 113.867188 L 347.066406 114.570312 L 347 112.027344 Z M 374.605469 111.324219 "
                      fill-opacity="1" fill-rule="nonzero"/>
            </g>
        </g>
    </g>
    <g clip-path="url(#36b7623cc9)">
        <g clip-path="url(#c774e14b6a)">
            <g clip-path="url(#68e5b33373)">
                <path fill="#cb0006"
                      d="M 373.40625 112.945312 L 373.472656 115.488281 L 345.863281 116.191406 L 345.800781 113.648438 Z M 373.40625 112.945312 "
                      fill-opacity="1" fill-rule="nonzero"/>
            </g>
        </g>
    </g>
    <g clip-path="url(#85afd969d8)">
        <g clip-path="url(#b549fd89b6)">
            <g clip-path="url(#581682f43b)">
                <path fill="#cb0006"
                      d="M 373.40625 114.996094 L 373.472656 117.675781 L 344.355469 118.417969 L 344.289062 115.738281 Z M 373.40625 114.996094 "
                      fill-opacity="1" fill-rule="nonzero"/>
            </g>
        </g>
    </g>
    <g clip-path="url(#505b9331a5)">
        <g clip-path="url(#8b89d240dd)">
            <g clip-path="url(#b65c07bb5d)">
                <path fill="#cb0006"
                      d="M 373.09375 117.082031 L 373.167969 119.9375 L 342.113281 120.730469 L 342.039062 117.871094 Z M 373.09375 117.082031 "
                      fill-opacity="1" fill-rule="nonzero"/>
            </g>
        </g>
    </g>
    <g clip-path="url(#d78e153a4e)">
        <g clip-path="url(#844cc0dadf)">
            <g clip-path="url(#9bbe1eb505)">
                <path fill="#cb0006"
                      d="M 371.976562 118.984375 L 372.050781 121.835938 L 341.066406 122.625 L 340.992188 119.773438 Z M 371.976562 118.984375 "
                      fill-opacity="1" fill-rule="nonzero"/>
            </g>
        </g>
    </g>
    <g clip-path="url(#a4baab7a06)">
        <g clip-path="url(#d4c397a1a7)">
            <g clip-path="url(#0c020a5afb)">
                <path fill="#cb0006"
                      d="M 368.441406 120.808594 L 368.503906 123.347656 L 340.898438 124.050781 L 340.835938 121.511719 Z M 368.441406 120.808594 "
                      fill-opacity="1" fill-rule="nonzero"/>
            </g>
        </g>
    </g>
    <g clip-path="url(#358aebc207)">
        <g clip-path="url(#fb5bafbe4d)">
            <g clip-path="url(#c77e37f200)">
                <path fill="#cb0006"
                      d="M 368.441406 122.429688 L 368.503906 124.972656 L 340.898438 125.675781 L 340.835938 123.132812 Z M 368.441406 122.429688 "
                      fill-opacity="1" fill-rule="nonzero"/>
            </g>
        </g>
    </g>
    <g clip-path="url(#9c4a0b7151)">
        <g clip-path="url(#d1b3e6bdfd)">
            <g clip-path="url(#65e949819c)">
                <path fill="#cb0006"
                      d="M 368.441406 124.050781 L 368.503906 126.59375 L 340.898438 127.296875 L 340.835938 124.753906 Z M 368.441406 124.050781 "
                      fill-opacity="1" fill-rule="nonzero"/>
            </g>
        </g>
    </g>
    <g clip-path="url(#ebae5499c2)">
        <g clip-path="url(#a13de1362a)">
            <g clip-path="url(#364174d450)">
                <path fill="#cb0006"
                      d="M 367.242188 125.675781 L 367.304688 128.214844 L 339.699219 128.917969 L 339.632812 126.378906 Z M 367.242188 125.675781 "
                      fill-opacity="1" fill-rule="nonzero"/>
            </g>
        </g>
    </g>
    <g clip-path="url(#2d088568a6)">
        <g clip-path="url(#2c8beb5293)">
            <g clip-path="url(#0257fa468a)">
                <path fill="#cb0006"
                      d="M 367.238281 127.722656 L 367.308594 130.402344 L 338.191406 131.144531 L 338.121094 128.464844 Z M 367.238281 127.722656 "
                      fill-opacity="1" fill-rule="nonzero"/>
            </g>
        </g>
    </g>
    <g clip-path="url(#fcb1c14c1a)">
        <g clip-path="url(#ad3a5abe35)">
            <g clip-path="url(#5d96843611)">
                <path fill="#cb0006"
                      d="M 366.929688 129.808594 L 367.003906 132.667969 L 335.945312 133.457031 L 335.875 130.597656 Z M 366.929688 129.808594 "
                      fill-opacity="1" fill-rule="nonzero"/>
            </g>
        </g>
    </g>
    <g clip-path="url(#04c861a962)">
        <g clip-path="url(#1679a89027)">
            <g clip-path="url(#00bdc24b97)">
                <path fill="#cb0006"
                      d="M 365.8125 131.804688 L 365.882812 134.5625 L 335.945312 135.324219 L 335.875 132.566406 Z M 365.8125 131.804688 "
                      fill-opacity="1" fill-rule="nonzero"/>
            </g>
        </g>
    </g>
    <g clip-path="url(#6380aec3ee)">
        <g clip-path="url(#357fbeb0a6)">
            <g clip-path="url(#3c56bb18ff)">
                <path fill="#cb0006"
                      d="M 365.816406 133.28125 L 365.882812 135.929688 L 337.082031 136.664062 L 337.011719 134.011719 Z M 365.816406 133.28125 "
                      fill-opacity="1" fill-rule="nonzero"/>
            </g>
        </g>
    </g>
    <g clip-path="url(#5b42bdbd36)">
        <g clip-path="url(#3ee9c1cba2)">
            <g clip-path="url(#9777327fb3)">
                <path fill="#cb0006"
                      d="M 365.8125 134.796875 L 365.882812 137.550781 L 335.945312 138.316406 L 335.875 135.558594 Z M 365.8125 134.796875 "
                      fill-opacity="1" fill-rule="nonzero"/>
            </g>
        </g>
    </g>
    <g clip-path="url(#1dc8566d79)">
        <g clip-path="url(#7040a3b8d1)">
            <g clip-path="url(#817dc0a500)">
                <path fill="#cb0006"
                      d="M 365.816406 136.386719 L 365.886719 139.175781 L 335.574219 139.949219 L 335.5 137.15625 Z M 365.816406 136.386719 "
                      fill-opacity="1" fill-rule="nonzero"/>
            </g>
        </g>
    </g>
    <g clip-path="url(#edf2fa1497)">
        <g clip-path="url(#01da5ffc6a)">
            <g clip-path="url(#f89625958c)">
                <path fill="#cb0006"
                      d="M 364.617188 138.121094 L 364.683594 140.800781 L 335.566406 141.542969 L 335.5 138.863281 Z M 364.617188 138.121094 "
                      fill-opacity="1" fill-rule="nonzero"/>
            </g>
        </g>
    </g>
    <g clip-path="url(#fcd7f27ffe)">
        <g clip-path="url(#ff3a3613d0)">
            <g clip-path="url(#6c45230bdd)">
                <path fill="#cb0006"
                      d="M 364.613281 140.203125 L 364.683594 142.984375 L 334.496094 143.75 L 334.425781 140.972656 Z M 364.613281 140.203125 "
                      fill-opacity="1" fill-rule="nonzero"/>
            </g>
        </g>
    </g>
    <g clip-path="url(#72c3b17d3a)">
        <g clip-path="url(#d68e4dcd19)">
            <g clip-path="url(#e5639256e0)">
                <path fill="#cb0006"
                      d="M 364.304688 142.394531 L 364.378906 145.253906 L 333.324219 146.042969 L 333.25 143.183594 Z M 364.304688 142.394531 "
                      fill-opacity="1" fill-rule="nonzero"/>
            </g>
        </g>
    </g>
    <g clip-path="url(#c3b8573b82)">
        <g clip-path="url(#dc84bb3d93)">
            <g clip-path="url(#981b8818b6)">
                <path fill="#cb0006"
                      d="M 361.0625 144.226562 L 361.125 146.769531 L 333.519531 147.472656 L 333.457031 144.929688 Z M 361.0625 144.226562 "
                      fill-opacity="1" fill-rule="nonzero"/>
            </g>
        </g>
    </g>
    <g clip-path="url(#d7777501b0)">
        <g clip-path="url(#d589a912cc)">
            <g clip-path="url(#ed6d22ad2f)">
                <path fill="#cb0006"
                      d="M 361.0625 145.847656 L 361.125 148.390625 L 333.519531 149.09375 L 333.457031 146.550781 Z M 361.0625 145.847656 "
                      fill-opacity="1" fill-rule="nonzero"/>
            </g>
        </g>
    </g>
    <g clip-path="url(#7a1827b88a)">
        <g clip-path="url(#6875b0d30f)">
            <g clip-path="url(#17c8ae944e)">
                <path fill="#cb0006"
                      d="M 361.0625 147.355469 L 361.128906 150.007812 L 332.324219 150.742188 L 332.257812 148.089844 Z M 361.0625 147.355469 "
                      fill-opacity="1" fill-rule="nonzero"/>
            </g>
        </g>
    </g>
    <g clip-path="url(#c194ccb4a0)">
        <g clip-path="url(#63709e1c63)">
            <g clip-path="url(#3c6d2b7e9d)">
                <path fill="#cb0006"
                      d="M 359.863281 148.992188 L 359.929688 151.636719 L 331.191406 152.367188 L 331.125 149.722656 Z M 359.863281 148.992188 "
                      fill-opacity="1" fill-rule="nonzero"/>
            </g>
        </g>
    </g>
    <g clip-path="url(#9d2267e357)">
        <g clip-path="url(#4770330dbf)">
            <g clip-path="url(#c9d5c1ffd2)">
                <path fill="#cb0006"
                      d="M 359.859375 151.140625 L 359.929688 153.820312 L 330.8125 154.5625 L 330.742188 151.882812 Z M 359.859375 151.140625 "
                      fill-opacity="1" fill-rule="nonzero"/>
            </g>
        </g>
    </g>
    <g clip-path="url(#9660ce5276)">
        <g clip-path="url(#7bdb7bce57)">
            <g clip-path="url(#0068fa490c)">
                <path fill="#cb0006"
                      d="M 359.558594 153.4375 L 359.625 156.089844 L 330.8125 156.824219 L 330.746094 154.171875 Z M 359.558594 153.4375 "
                      fill-opacity="1" fill-rule="nonzero"/>
            </g>
        </g>
    </g>
    <g clip-path="url(#653bedb42f)">
        <g clip-path="url(#2b1998c51e)">
            <g clip-path="url(#e7ca4338fb)">
                <path fill="#cb0006"
                      d="M 358.8125 153.929688 L 358.882812 156.6875 L 328.921875 157.449219 L 328.851562 154.691406 Z M 358.8125 153.929688 "
                      fill-opacity="1" fill-rule="nonzero"/>
            </g>
        </g>
    </g>
    <g clip-path="url(#3f196fc4bb)">
        <g clip-path="url(#c2900675c1)">
            <g clip-path="url(#978c310950)">
                <path fill="#cb0006"
                      d="M 356.457031 155.753906 L 356.519531 158.296875 L 328.914062 159 L 328.847656 156.457031 Z M 356.457031 155.753906 "
                      fill-opacity="1" fill-rule="nonzero"/>
            </g>
        </g>
    </g>
    <g clip-path="url(#d3c3569cda)">
        <g clip-path="url(#28e99730d5)">
            <g clip-path="url(#6c39c3bda4)">
                <path fill="#cb0006"
                      d="M 356.457031 157.378906 L 356.519531 159.917969 L 328.914062 160.621094 L 328.847656 158.082031 Z M 356.457031 157.378906 "
                      fill-opacity="1" fill-rule="nonzero"/>
            </g>
        </g>
    </g>
    <g clip-path="url(#55eb57a19e)">
        <g clip-path="url(#3a9e55402e)">
            <g clip-path="url(#a9b0d27388)">
                <path fill="#cb0006" d="M 356.457031 159 L 356.519531 161.539062 L 328.914062 162.242188 L 328.847656 159.703125 Z M 356.457031 159 "
                      fill-opacity="1" fill-rule="nonzero"/>
            </g>
        </g>
    </g>
    <g clip-path="url(#6fe33bf0b5)">
        <g clip-path="url(#c3e6de0ac7)">
            <g clip-path="url(#a1f4b570cd)">
                <path fill="#cb0006"
                      d="M 355.253906 160.621094 L 355.320312 163.164062 L 327.714844 163.867188 L 327.648438 161.324219 Z M 355.253906 160.621094 "
                      fill-opacity="1" fill-rule="nonzero"/>
            </g>
        </g>
    </g>
    <g clip-path="url(#d3bf85866c)">
        <g clip-path="url(#2472d44e8f)">
            <g clip-path="url(#bf9363410b)">
                <path fill="#cb0006"
                      d="M 355.253906 162.667969 L 355.320312 165.351562 L 326.207031 166.089844 L 326.136719 163.410156 Z M 355.253906 162.667969 "
                      fill-opacity="1" fill-rule="nonzero"/>
            </g>
        </g>
    </g>
    <g clip-path="url(#48aeb2a129)">
        <g clip-path="url(#510f42bf1c)">
            <g clip-path="url(#4f69acca04)">
                <path fill="#cb0006"
                      d="M 354.949219 164.96875 L 355.019531 167.617188 L 326.207031 168.351562 L 326.140625 165.699219 Z M 354.949219 164.96875 "
                      fill-opacity="1" fill-rule="nonzero"/>
            </g>
        </g>
    </g>
    <g clip-path="url(#cecc0ef839)">
        <g clip-path="url(#cb8ec704f4)">
            <g clip-path="url(#3b48633cf1)">
                <path fill="#cb0006"
                      d="M 354.605469 166.089844 L 354.671875 168.632812 L 327.0625 169.335938 L 327 166.792969 Z M 354.605469 166.089844 "
                      fill-opacity="1" fill-rule="nonzero"/>
            </g>
        </g>
    </g>
    <g clip-path="url(#5bcabc9abc)">
        <g clip-path="url(#fdcab6d7f0)">
            <g clip-path="url(#8076451b4a)">
                <path fill="#cb0006"
                      d="M 354.601562 167.460938 L 354.671875 170.25 L 324.359375 171.023438 L 324.289062 168.230469 Z M 354.601562 167.460938 "
                      fill-opacity="1" fill-rule="nonzero"/>
            </g>
        </g>
    </g>
    <g clip-path="url(#68540bd712)">
        <g clip-path="url(#3176a903b8)">
            <g clip-path="url(#99ec1abc92)">
                <path fill="#cb0006"
                      d="M 354.597656 169.078125 L 354.667969 171.875 L 324.292969 172.648438 L 324.222656 169.851562 Z M 354.597656 169.078125 "
                      fill-opacity="1" fill-rule="nonzero"/>
            </g>
        </g>
    </g>
    <g clip-path="url(#d2375c64da)">
        <g clip-path="url(#8276a02226)">
            <g clip-path="url(#5bf2506db5)">
                <path fill="#cb0006"
                      d="M 353.40625 170.71875 L 353.476562 173.496094 L 323.308594 174.265625 L 323.238281 171.488281 Z M 353.40625 170.71875 "
                      fill-opacity="1" fill-rule="nonzero"/>
            </g>
        </g>
    </g>
    <g clip-path="url(#f8276bf14c)">
        <g clip-path="url(#cc9f25b70d)">
            <g clip-path="url(#50ad9368be)">
                <path fill="#cb0006"
                      d="M 353.40625 172.90625 L 353.476562 175.683594 L 323.308594 176.453125 L 323.238281 173.675781 Z M 353.40625 172.90625 "
                      fill-opacity="1" fill-rule="nonzero"/>
            </g>
        </g>
    </g>
    <g clip-path="url(#918b73155e)">
        <g clip-path="url(#539a3e3442)">
            <g clip-path="url(#d8ab42b548)">
                <path fill="#cb0006"
                      d="M 353.09375 175.089844 L 353.167969 177.949219 L 322.109375 178.742188 L 322.039062 175.882812 Z M 353.09375 175.089844 "
                      fill-opacity="1" fill-rule="nonzero"/>
            </g>
        </g>
    </g>
    <g clip-path="url(#71042f0232)">
        <g clip-path="url(#bebbba0213)">
            <g clip-path="url(#df435a0119)">
                <path fill="#cb0006"
                      d="M 349.488281 176.453125 L 349.550781 178.996094 L 321.945312 179.699219 L 321.882812 177.15625 Z M 349.488281 176.453125 "
                      fill-opacity="1" fill-rule="nonzero"/>
            </g>
        </g>
    </g>
    <g clip-path="url(#46066618ff)">
        <g clip-path="url(#c5ba7c6784)">
            <g clip-path="url(#52ca370995)">
                <path fill="#cb0006"
                      d="M 349.488281 178.078125 L 349.550781 180.617188 L 321.945312 181.320312 L 321.882812 178.78125 Z M 349.488281 178.078125 "
                      fill-opacity="1" fill-rule="nonzero"/>
            </g>
        </g>
    </g>
    <g clip-path="url(#15940ee80c)">
        <g clip-path="url(#0966c6486b)">
            <g clip-path="url(#6592d6baef)">
                <path fill="#cb0006"
                      d="M 349.488281 179.585938 L 349.554688 182.242188 L 320.699219 182.976562 L 320.628906 180.320312 Z M 349.488281 179.585938 "
                      fill-opacity="1" fill-rule="nonzero"/>
            </g>
        </g>
    </g>
    <g clip-path="url(#4df6f35a89)">
        <g clip-path="url(#61d80f9589)">
            <g clip-path="url(#dffedb3789)">
                <path fill="#cb0006"
                      d="M 348.289062 181.21875 L 348.355469 183.863281 L 319.617188 184.597656 L 319.550781 181.949219 Z M 348.289062 181.21875 "
                      fill-opacity="1" fill-rule="nonzero"/>
            </g>
        </g>
    </g>
    <g clip-path="url(#504d9907f8)">
        <g clip-path="url(#4f5cbb326a)">
            <g clip-path="url(#fb2fd4fa66)">
                <path fill="#cb0006"
                      d="M 348.285156 183.371094 L 348.355469 186.050781 L 319.238281 186.792969 L 319.167969 184.109375 Z M 348.285156 183.371094 "
                      fill-opacity="1" fill-rule="nonzero"/>
            </g>
        </g>
    </g>
    <g clip-path="url(#eae1276072)">
        <g clip-path="url(#12475a31eb)">
            <g clip-path="url(#bddc425289)">
                <path fill="#cb0006"
                      d="M 347.984375 185.667969 L 348.050781 188.320312 L 319.238281 189.054688 L 319.171875 186.402344 Z M 347.984375 185.667969 "
                      fill-opacity="1" fill-rule="nonzero"/>
            </g>
        </g>
    </g>
    <g clip-path="url(#c55bb83e3b)">
        <g clip-path="url(#e85d4ae52f)">
            <g clip-path="url(#42b10a8fba)">
                <path fill="#cb0006"
                      d="M 346.859375 187.554688 L 346.929688 190.214844 L 318.058594 190.949219 L 317.988281 188.289062 Z M 346.859375 187.554688 "
                      fill-opacity="1" fill-rule="nonzero"/>
            </g>
        </g>
    </g>
    <g clip-path="url(#1954424594)">
        <g clip-path="url(#cf8b33d9c4)">
            <g clip-path="url(#5d95aec945)">
                <path fill="#cb0006"
                      d="M 345.117188 189.804688 L 345.179688 192.34375 L 317.574219 193.050781 L 317.507812 190.507812 Z M 345.117188 189.804688 "
                      fill-opacity="1" fill-rule="nonzero"/>
            </g>
        </g>
    </g>
    <g clip-path="url(#b9a506887e)">
        <g clip-path="url(#a6d55f7c44)">
            <g clip-path="url(#ab395f035c)">
                <path fill="#cb0006"
                      d="M 345.117188 191.3125 L 345.183594 193.964844 L 316.378906 194.695312 L 316.3125 192.046875 Z M 345.117188 191.3125 "
                      fill-opacity="1" fill-rule="nonzero"/>
            </g>
        </g>
    </g>
    <g clip-path="url(#c5e51afe25)">
        <g clip-path="url(#2b44eb227a)">
            <g clip-path="url(#2f66ac2ce8)">
                <path fill="#cb0006"
                      d="M 345.117188 192.933594 L 345.183594 195.585938 L 316.378906 196.320312 L 316.3125 193.667969 Z M 345.117188 192.933594 "
                      fill-opacity="1" fill-rule="nonzero"/>
            </g>
        </g>
    </g>
    <g clip-path="url(#4b674d3d15)">
        <g clip-path="url(#6157b9d9ec)">
            <g clip-path="url(#f37e7dda10)">
                <path fill="#cb0006"
                      d="M 343.917969 194.570312 L 343.984375 197.214844 L 315.246094 197.945312 L 315.179688 195.300781 Z M 343.917969 194.570312 "
                      fill-opacity="1" fill-rule="nonzero"/>
            </g>
        </g>
    </g>
    <g clip-path="url(#fe33384d97)">
        <g clip-path="url(#66bbcc6d9c)">
            <g clip-path="url(#e065bbd5c7)">
                <path fill="#cb0006"
                      d="M 343.914062 196.71875 L 343.984375 199.398438 L 314.867188 200.140625 L 314.796875 197.460938 Z M 343.914062 196.71875 "
                      fill-opacity="1" fill-rule="nonzero"/>
            </g>
        </g>
    </g>
    <g clip-path="url(#d9d879a32e)">
        <g clip-path="url(#0397f91182)">
            <g clip-path="url(#4745f0cf33)">
                <path fill="#cb0006"
                      d="M 343.605469 198.921875 L 343.675781 201.664062 L 313.851562 202.425781 L 313.78125 199.679688 Z M 343.605469 198.921875 "
                      fill-opacity="1" fill-rule="nonzero"/>
            </g>
        </g>
    </g>
    <g clip-path="url(#907886668e)">
        <g clip-path="url(#3c82d082ed)">
            <g clip-path="url(#1f429047b2)">
                <path fill="#cb0006"
                      d="M 342.488281 200.90625 L 342.558594 203.5625 L 313.683594 204.296875 L 313.617188 201.640625 Z M 342.488281 200.90625 "
                      fill-opacity="1" fill-rule="nonzero"/>
            </g>
        </g>
    </g>
    <g clip-path="url(#c73b9e0755)">
        <g clip-path="url(#c778998f98)">
            <g clip-path="url(#b1754d4d20)">
                <path fill="#cb0006"
                      d="M 339.414062 202.601562 L 339.476562 205.144531 L 311.871094 205.847656 L 311.804688 203.304688 Z M 339.414062 202.601562 "
                      fill-opacity="1" fill-rule="nonzero"/>
            </g>
        </g>
    </g>
    <g clip-path="url(#15033256bd)">
        <g clip-path="url(#5d7d38a4ba)">
            <g clip-path="url(#3d0686f6ef)">
                <path fill="#cb0006"
                      d="M 339.414062 204.222656 L 339.476562 206.765625 L 311.871094 207.46875 L 311.804688 204.925781 Z M 339.414062 204.222656 "
                      fill-opacity="1" fill-rule="nonzero"/>
            </g>
        </g>
    </g>
    <g clip-path="url(#2ca1e173cd)">
        <g clip-path="url(#346d0f1503)">
            <g clip-path="url(#cacc090879)">
                <path fill="#cb0006"
                      d="M 339.90625 206.058594 L 339.972656 208.601562 L 312.363281 209.304688 L 312.300781 206.761719 Z M 339.90625 206.058594 "
                      fill-opacity="1" fill-rule="nonzero"/>
            </g>
        </g>
    </g>
    <g clip-path="url(#4f3fc6710b)">
        <g clip-path="url(#98734bb8a2)">
            <g clip-path="url(#d95cbf3b73)">
                <path fill="#cb0006"
                      d="M 338.214844 207.46875 L 338.277344 210.011719 L 310.671875 210.714844 L 310.605469 208.171875 Z M 338.214844 207.46875 "
                      fill-opacity="1" fill-rule="nonzero"/>
            </g>
        </g>
    </g>
    <g clip-path="url(#ed483d1854)">
        <g clip-path="url(#e646bec3c9)">
            <g clip-path="url(#c9d0e499c0)">
                <path fill="#cb0006"
                      d="M 338.214844 209.65625 L 338.277344 212.195312 L 310.671875 212.898438 L 310.605469 210.359375 Z M 338.214844 209.65625 "
                      fill-opacity="1" fill-rule="nonzero"/>
            </g>
        </g>
    </g>
    <g clip-path="url(#a9c1f8b34e)">
        <g clip-path="url(#7b0e2fd8eb)">
            <g clip-path="url(#c9c95f55e3)">
                <path fill="#cb0006"
                      d="M 337.90625 211.8125 L 337.976562 214.464844 L 309.164062 215.199219 L 309.097656 212.546875 Z M 337.90625 211.8125 "
                      fill-opacity="1" fill-rule="nonzero"/>
            </g>
        </g>
    </g>
    <g clip-path="url(#5a50d64443)">
        <g clip-path="url(#57c6eec42d)">
            <g clip-path="url(#ccafcd1afc)">
                <path fill="#cb0006"
                      d="M 336.792969 213.8125 L 336.859375 216.359375 L 309.160156 217.066406 L 309.097656 214.515625 Z M 336.792969 213.8125 "
                      fill-opacity="1" fill-rule="nonzero"/>
            </g>
        </g>
    </g>
    <g clip-path="url(#337eb1ab97)">
        <g clip-path="url(#87663b40c3)">
            <g clip-path="url(#cb5ae6efb0)">
                <path fill="#cb0006"
                      d="M 335.804688 215.953125 L 335.871094 218.492188 L 308.265625 219.195312 L 308.199219 216.65625 Z M 335.804688 215.953125 "
                      fill-opacity="1" fill-rule="nonzero"/>
            </g>
        </g>
    </g>
    <g clip-path="url(#8cf6cf0d7f)">
        <g clip-path="url(#abb2bcb4bb)">
            <g clip-path="url(#b179699c9a)">
                <path fill="#cb0006"
                      d="M 335.804688 217.574219 L 335.871094 220.117188 L 308.265625 220.820312 L 308.199219 218.277344 Z M 335.804688 217.574219 "
                      fill-opacity="1" fill-rule="nonzero"/>
            </g>
        </g>
    </g>
    <g clip-path="url(#a7199ffca6)">
        <g clip-path="url(#18068bb7e2)">
            <g clip-path="url(#af32e36770)">
                <path fill="#cb0006"
                      d="M 335.804688 219.082031 L 335.875 221.734375 L 307.070312 222.464844 L 307.003906 219.816406 Z M 335.804688 219.082031 "
                      fill-opacity="1" fill-rule="nonzero"/>
            </g>
        </g>
    </g>
    <g clip-path="url(#32f8786669)">
        <g clip-path="url(#95e6bb49f9)">
            <g clip-path="url(#b7acf198ba)">
                <path fill="#cb0006"
                      d="M 334.605469 220.820312 L 334.671875 223.359375 L 307.066406 224.0625 L 307 221.523438 Z M 334.605469 220.820312 "
                      fill-opacity="1" fill-rule="nonzero"/>
            </g>
        </g>
    </g>
    <g clip-path="url(#330c543693)">
        <g clip-path="url(#1bfcaa0391)">
            <g clip-path="url(#09f13f0ef0)">
                <path fill="#cb0006"
                      d="M 334.605469 222.867188 L 334.671875 225.546875 L 305.554688 226.289062 L 305.488281 223.609375 Z M 334.605469 222.867188 "
                      fill-opacity="1" fill-rule="nonzero"/>
            </g>
        </g>
    </g>
    <g clip-path="url(#8af2c6e3c0)">
        <g clip-path="url(#97fc15e9cb)">
            <g clip-path="url(#3ffaf975bb)">
                <path fill="#cb0006"
                      d="M 334.292969 224.953125 L 334.367188 227.808594 L 303.3125 228.601562 L 303.238281 225.742188 Z M 334.292969 224.953125 "
                      fill-opacity="1" fill-rule="nonzero"/>
            </g>
        </g>
    </g>
    <g clip-path="url(#71c6997f74)">
        <g clip-path="url(#422dd0a498)">
            <g clip-path="url(#41569c6fce)">
                <path fill="#cb0006"
                      d="M 332.652344 226.78125 L 332.71875 229.335938 L 304.964844 230.042969 L 304.898438 227.488281 Z M 332.652344 226.78125 "
                      fill-opacity="1" fill-rule="nonzero"/>
            </g>
        </g>
    </g>
    <g clip-path="url(#ca8281fc0d)">
        <g clip-path="url(#87330c6af8)">
            <path fill="#cb0006"
                  d="M 332.257812 229.359375 L 332.257812 232.023438 L 303.300781 232.023438 L 303.300781 229.359375 Z M 332.257812 229.359375 "
                  fill-opacity="1" fill-rule="nonzero"/>
        </g>
    </g>
    <g clip-path="url(#bbdd99f12f)">
        <g clip-path="url(#ceade60524)">
            <g clip-path="url(#ed07e553d5)">
                <path fill="#cb0006"
                      d="M 331.625 227.785156 L 331.691406 230.339844 L 303.9375 231.046875 L 303.875 228.492188 Z M 331.625 227.785156 "
                      fill-opacity="1" fill-rule="nonzero"/>
            </g>
        </g>
    </g>
    <g fill="#000000" fill-opacity="1">
        <g transform="translate(87.733264, 258.436518)">
            <g>
                <path d="M 0.722656 0 L 8.996094 0 C 16.5 0 21.503906 -5.386719 21.503906 -12.027344 C 21.503906 -18.664062 16.5 -24.050781 8.996094 -24.050781 L 0.722656 -24.050781 L 0.722656 -23.761719 L 1.828125 -23.761719 C 2.285156 -23.761719 3.054688 -23.546875 3.054688 -22.222656 L 3.054688 -1.828125 C 3.054688 -0.503906 2.285156 -0.289062 1.828125 -0.289062 L 0.722656 -0.289062 Z M 8.996094 -23.761719 C 15.394531 -23.761719 19.699219 -18.519531 19.699219 -12.027344 C 19.699219 -5.507812 15.394531 -0.289062 8.996094 -0.289062 L 4.808594 -0.289062 L 4.808594 -23.761719 Z M 8.996094 -23.761719 "/>
            </g>
        </g>
    </g>
    <g fill="#000000" fill-opacity="1">
        <g transform="translate(109.956693, 258.436518)">
            <g>
                <path d="M 0.722656 -0.289062 L 0.722656 0 L 7.144531 0 L 7.144531 -0.289062 L 6.035156 -0.289062 C 5.578125 -0.289062 4.808594 -0.503906 4.808594 -1.828125 L 4.808594 -22.222656 C 4.808594 -23.546875 5.578125 -23.761719 6.035156 -23.761719 L 7.144531 -23.761719 L 7.144531 -24.050781 L 0.722656 -24.050781 L 0.722656 -23.761719 L 1.828125 -23.761719 C 2.285156 -23.761719 3.054688 -23.546875 3.054688 -22.222656 L 3.054688 -1.828125 C 3.054688 -0.503906 2.285156 -0.289062 1.828125 -0.289062 Z M 3.847656 -25.976562 C 4.28125 -25.976562 4.617188 -26.3125 4.617188 -26.746094 C 4.617188 -27.179688 4.28125 -27.515625 3.847656 -27.515625 C 3.414062 -27.515625 3.078125 -27.179688 3.078125 -26.746094 C 3.078125 -26.3125 3.414062 -25.976562 3.847656 -25.976562 Z M 3.847656 -25.976562 "/>
            </g>
        </g>
    </g>
    <g fill="#000000" fill-opacity="1">
        <g transform="translate(117.821479, 258.436518)">
            <g>
                <path d="M 0.9375 0.503906 C 0.9375 -0.121094 1.273438 -0.699219 1.851562 -0.699219 C 2.789062 -0.699219 3.945312 0.503906 6.035156 0.503906 C 10.4375 0.503906 11.738281 -2.957031 11.738281 -7.71875 L 11.738281 -22.199219 C 11.738281 -23.523438 12.507812 -23.738281 12.964844 -23.738281 L 14.070312 -23.738281 L 14.070312 -24.027344 L 7.648438 -24.027344 L 7.648438 -23.738281 L 8.753906 -23.738281 C 9.210938 -23.738281 9.980469 -23.523438 9.980469 -22.199219 L 9.980469 -5.75 C 9.980469 -2.574219 8.875 0.214844 5.988281 0.214844 C 3.125 0.214844 1.035156 -2.117188 1.035156 -6.398438 L 1.035156 -12.003906 L 0.722656 -12.003906 L 0.722656 0.503906 Z M 0.9375 0.503906 "/>
            </g>
        </g>
    </g>
    <g fill="#000000" fill-opacity="1">
        <g transform="translate(132.13202, 258.436518)">
            <g>
                <path d="M 0.722656 -0.289062 L 0.722656 0 L 7.144531 0 L 7.144531 -0.289062 L 6.035156 -0.289062 C 5.578125 -0.289062 4.808594 -0.503906 4.808594 -1.828125 L 4.808594 -22.222656 C 4.808594 -23.546875 5.578125 -23.761719 6.035156 -23.761719 L 7.144531 -23.761719 L 7.144531 -24.050781 L 0.722656 -24.050781 L 0.722656 -23.761719 L 1.828125 -23.761719 C 2.285156 -23.761719 3.054688 -23.546875 3.054688 -22.222656 L 3.054688 -1.828125 C 3.054688 -0.503906 2.285156 -0.289062 1.828125 -0.289062 Z M 3.847656 -25.976562 C 4.28125 -25.976562 4.617188 -26.3125 4.617188 -26.746094 C 4.617188 -27.179688 4.28125 -27.515625 3.847656 -27.515625 C 3.414062 -27.515625 3.078125 -27.179688 3.078125 -26.746094 C 3.078125 -26.3125 3.414062 -25.976562 3.847656 -25.976562 Z M 3.847656 -25.976562 "/>
            </g>
        </g>
    </g>
    <g fill="#000000" fill-opacity="1">
        <g transform="translate(139.996805, 258.436518)">
            <g>
                <path d="M 0.648438 -16.597656 L 0.9375 -16.597656 L 0.9375 -19.867188 C 0.9375 -22.65625 2.644531 -23.644531 4.066406 -23.644531 L 6.78125 -23.644531 L 6.78125 -1.828125 C 6.78125 -0.503906 6.011719 -0.289062 5.554688 -0.289062 L 4.449219 -0.289062 L 4.449219 0 L 10.871094 0 L 10.871094 -0.289062 L 9.765625 -0.289062 C 9.308594 -0.289062 8.539062 -0.503906 8.539062 -1.828125 L 8.539062 -23.644531 L 11.257812 -23.644531 C 12.675781 -23.644531 14.382812 -22.65625 14.382812 -19.867188 L 14.382812 -16.597656 L 14.671875 -16.597656 L 14.671875 -24.53125 L 14.382812 -24.53125 C 14.382812 -24.269531 14.167969 -24.050781 13.734375 -24.050781 L 1.585938 -24.050781 C 1.15625 -24.050781 0.9375 -24.269531 0.9375 -24.53125 L 0.648438 -24.53125 Z M 0.648438 -16.597656 "/>
            </g>
        </g>
    </g>
    <g fill="#000000" fill-opacity="1">
        <g transform="translate(155.317503, 258.436518)">
            <g>
                <path d="M 0.722656 -0.289062 L 0.722656 0 L 7.625 0 L 7.625 -0.265625 L 6.542969 -0.265625 C 5.75 -0.265625 4.882812 -0.746094 4.882812 -2.09375 C 4.882812 -2.933594 5.125 -4.328125 5.53125 -6.011719 L 14.863281 -6.011719 C 15.65625 -3.320312 16.234375 -1.25 16.234375 -0.890625 C 16.234375 -0.265625 15.800781 -0.265625 15.441406 -0.265625 L 14.335938 -0.265625 L 14.335938 0 L 20.78125 0 L 20.78125 -0.289062 L 19.914062 -0.289062 C 18.664062 -0.289062 18.015625 -1.660156 17.582031 -2.597656 C 17.195312 -3.4375 11.882812 -21.382812 10.917969 -24.53125 L 10.632812 -24.53125 C 9.667969 -21.382812 4.28125 -3.4375 3.921875 -2.597656 C 3.511719 -1.660156 2.839844 -0.289062 1.585938 -0.289062 Z M 7.863281 -14.191406 C 8.777344 -17.171875 9.644531 -19.9375 10.101562 -21.503906 L 10.003906 -21.792969 C 10.003906 -21.792969 12.941406 -12.507812 14.769531 -6.300781 L 5.605469 -6.300781 C 6.179688 -8.660156 7.023438 -11.519531 7.863281 -14.191406 Z M 7.863281 -14.191406 "/>
            </g>
        </g>
    </g>
    <g fill="#000000" fill-opacity="1">
        <g transform="translate(176.819393, 258.436518)">
            <g>
                <path d="M 0.722656 -24.050781 L 0.722656 -23.761719 L 1.828125 -23.761719 C 2.285156 -23.761719 3.054688 -23.546875 3.054688 -22.222656 L 3.054688 -1.828125 C 3.054688 -0.503906 2.285156 -0.289062 1.828125 -0.289062 L 0.722656 -0.289062 L 0.722656 0 L 14.167969 0 C 14.769531 0 14.914062 0.191406 14.839844 0.480469 L 15.152344 0.480469 L 16.789062 -8.972656 L 16.523438 -8.972656 C 16.164062 -7.289062 15.296875 -0.289062 9.5 -0.289062 L 4.808594 -0.289062 L 4.808594 -22.222656 C 4.808594 -23.546875 5.578125 -23.761719 6.035156 -23.761719 L 7.144531 -23.761719 L 7.144531 -24.050781 Z M 0.722656 -24.050781 "/>
            </g>
        </g>
    </g>
    <g fill="#cb0006" fill-opacity="1">
        <g transform="translate(198.970115, 258.01614)">
            <g>
                <path d="M 0.722656 -0.289062 L 0.722656 0 L 7.640625 0 L 7.640625 -0.265625 L 6.554688 -0.265625 C 5.757812 -0.265625 4.890625 -0.746094 4.890625 -2.097656 C 4.890625 -2.941406 5.132812 -4.335938 5.542969 -6.023438 L 14.890625 -6.023438 C 15.6875 -3.324219 16.265625 -1.253906 16.265625 -0.890625 C 16.265625 -0.265625 15.832031 -0.265625 15.46875 -0.265625 L 14.363281 -0.265625 L 14.363281 0 L 20.820312 0 L 20.820312 -0.289062 L 19.953125 -0.289062 C 18.699219 -0.289062 18.050781 -1.664062 17.617188 -2.601562 C 17.230469 -3.445312 11.902344 -21.421875 10.941406 -24.578125 L 10.652344 -24.578125 C 9.6875 -21.421875 4.289062 -3.445312 3.929688 -2.601562 C 3.519531 -1.664062 2.84375 -0.289062 1.589844 -0.289062 Z M 7.878906 -14.21875 C 8.796875 -17.207031 9.664062 -19.976562 10.121094 -21.542969 L 10.023438 -21.832031 C 10.023438 -21.832031 12.964844 -12.53125 14.796875 -6.3125 L 5.613281 -6.3125 C 6.191406 -8.675781 7.035156 -11.542969 7.878906 -14.21875 Z M 7.878906 -14.21875 "/>
            </g>
        </g>
    </g>
    <g fill="#cb0006" fill-opacity="1">
        <g transform="translate(220.50992, 258.01614)">
            <g>
                <path d="M 0.941406 0.507812 C 0.941406 -0.121094 1.277344 -0.699219 1.855469 -0.699219 C 2.796875 -0.699219 3.953125 0.507812 6.046875 0.507812 C 10.457031 0.507812 11.757812 -2.964844 11.757812 -7.734375 L 11.757812 -22.242188 C 11.757812 -23.566406 12.53125 -23.785156 12.988281 -23.785156 L 14.097656 -23.785156 L 14.097656 -24.074219 L 7.664062 -24.074219 L 7.664062 -23.785156 L 8.773438 -23.785156 C 9.230469 -23.785156 10 -23.566406 10 -22.242188 L 10 -5.757812 C 10 -2.578125 8.890625 0.21875 6 0.21875 C 3.132812 0.21875 1.035156 -2.121094 1.035156 -6.410156 L 1.035156 -12.023438 L 0.722656 -12.023438 L 0.722656 0.507812 Z M 0.941406 0.507812 "/>
            </g>
        </g>
    </g>
    <g fill="#cb0006" fill-opacity="1">
        <g transform="translate(234.845704, 258.01614)">
            <g>
                <path d="M 0.722656 -0.289062 L 0.722656 0 L 7.640625 0 L 7.640625 -0.265625 L 6.554688 -0.265625 C 5.757812 -0.265625 4.890625 -0.746094 4.890625 -2.097656 C 4.890625 -2.941406 5.132812 -4.335938 5.542969 -6.023438 L 14.890625 -6.023438 C 15.6875 -3.324219 16.265625 -1.253906 16.265625 -0.890625 C 16.265625 -0.265625 15.832031 -0.265625 15.46875 -0.265625 L 14.363281 -0.265625 L 14.363281 0 L 20.820312 0 L 20.820312 -0.289062 L 19.953125 -0.289062 C 18.699219 -0.289062 18.050781 -1.664062 17.617188 -2.601562 C 17.230469 -3.445312 11.902344 -21.421875 10.941406 -24.578125 L 10.652344 -24.578125 C 9.6875 -21.421875 4.289062 -3.445312 3.929688 -2.601562 C 3.519531 -1.664062 2.84375 -0.289062 1.589844 -0.289062 Z M 7.878906 -14.21875 C 8.796875 -17.207031 9.664062 -19.976562 10.121094 -21.542969 L 10.023438 -21.832031 C 10.023438 -21.832031 12.964844 -12.53125 14.796875 -6.3125 L 5.613281 -6.3125 C 6.191406 -8.675781 7.035156 -11.542969 7.878906 -14.21875 Z M 7.878906 -14.21875 "/>
            </g>
        </g>
    </g>
    <g fill="#cb0006" fill-opacity="1">
        <g transform="translate(256.385509, 258.01614)">
            <g>
                <path d="M 0.722656 -23.808594 L 1.832031 -23.808594 C 2.289062 -23.808594 3.058594 -23.589844 3.058594 -22.265625 L 3.058594 -1.832031 C 3.058594 -0.507812 2.289062 -0.289062 1.832031 -0.289062 L 0.722656 -0.289062 L 0.722656 0 L 7.421875 0 L 7.421875 -0.289062 L 6.074219 -0.289062 C 4.769531 -0.289062 3.398438 -0.242188 3.398438 -7.613281 L 3.398438 -22.457031 L 16.339844 0 L 16.675781 0 L 16.675781 -22.265625 C 16.675781 -23.589844 17.445312 -23.808594 17.90625 -23.808594 L 19.011719 -23.808594 L 19.011719 -24.097656 L 12.3125 -24.097656 L 12.3125 -23.808594 L 13.664062 -23.808594 C 14.964844 -23.808594 16.339844 -23.855469 16.339844 -16.484375 L 16.339844 -3.640625 L 4.625 -24.097656 L 0.722656 -24.097656 Z M 0.722656 -23.808594 "/>
            </g>
        </g>
    </g>
    <g fill="#cb0006" fill-opacity="1">
        <g transform="translate(276.118292, 258.01614)">
            <g>
                <path d="M 13.46875 -5.757812 C 13.46875 -1.734375 11.0625 0.191406 8.144531 0.191406 C 4.796875 0.191406 1.734375 -1.011719 1.734375 -6.097656 L 1.734375 -12.074219 L 1.445312 -12.074219 L 1.445312 0.457031 L 1.734375 0.457031 C 2.046875 0.0976562 2.507812 -0.0234375 3.109375 -0.0234375 C 4.3125 -0.0234375 5.855469 0.480469 8.144531 0.480469 C 12.722656 0.480469 14.988281 -2.433594 14.988281 -5.808594 C 14.988281 -9.179688 13.085938 -10.941406 10.796875 -12.3125 L 15.179688 -24.578125 L 14.941406 -24.578125 C 14.484375 -23.6875 13.902344 -23.566406 13.398438 -23.566406 C 11.976562 -23.566406 10.964844 -24.578125 7.878906 -24.578125 C 4.433594 -24.578125 1.445312 -22.773438 1.445312 -19.328125 C 1.445312 -11.351562 13.46875 -12.410156 13.46875 -5.757812 Z M 7.878906 -24.289062 C 15.832031 -24.289062 12.144531 -17.085938 10.554688 -12.433594 C 7.109375 -14.433594 2.890625 -15.640625 2.890625 -20.023438 C 2.890625 -21.472656 3.808594 -24.289062 7.878906 -24.289062 Z M 7.878906 -24.289062 "/>
            </g>
        </g>
    </g>
</svg>